<svg version="1.1" viewBox="0.0 0.0 960.0 960.0" fill="none" stroke="none" stroke-linecap="square" stroke-miterlimit="10" xmlns:xlink="http://www.w3.org/1999/xlink" xmlns="http://www.w3.org/2000/svg"><clipPath id="p.0"><path d="m0 0l960.0 0l0 960.0l-960.0 0l0 -960.0z" clip-rule="nonzero"/></clipPath><g clip-path="url(#p.0)"><path fill="#000000" fill-opacity="0.0" d="m0 0l960.0 0l0 960.0l-960.0 0z" fill-rule="evenodd"/><path fill="#f1c232" d="m48.0 100.798l0 0c0 -2.6498642 2.1481361 -4.7979965 4.7979965 -4.7979965l434.78195 0c1.272522 0 2.4928894 0.5055008 3.3927002 1.405304c0.8997803 0.89979553 1.405304 2.1201859 1.405304 3.3926926l0 19.191406c0 2.6498642 -2.1481323 4.7979965 -4.798004 4.7979965l-434.78195 0c-2.6498604 0 -4.7979965 -2.1481323 -4.7979965 -4.7979965z" fill-rule="evenodd"/><path fill="#000000" fill-opacity="0.0" d="m48.0 480.0l0 0c0 -238.587 193.413 -432.0 432.0 -432.0l0 0c114.57355 0 224.4544 45.514153 305.47015 126.52988c81.015686 81.01572 126.52985 190.8966 126.52985 305.47012l0 0c0 238.58704 -193.41296 432.0 -432.0 432.0l0 0c-238.587 0 -432.0 -193.41296 -432.0 -432.0z" fill-rule="evenodd"/><path stroke="#000000" stroke-width="24.0" stroke-linejoin="round" stroke-linecap="butt" d="m48.0 480.0l0 0c0 -238.587 193.413 -432.0 432.0 -432.0l0 0c114.57355 0 224.4544 45.514153 305.47015 126.52988c81.015686 81.01572 126.52985 190.8966 126.52985 305.47012l0 0c0 238.58704 -193.41296 432.0 -432.0 432.0l0 0c-238.587 0 -432.0 -193.41296 -432.0 -432.0z" fill-rule="evenodd"/><path fill="#f1c232" d="m96.0 480.0l0 0c0 -212.07733 171.92267 -384.0 384.0 -384.0l0 0c101.84314 0 199.51501 40.45703 271.529 112.47099c72.01398 72.01396 112.47101 169.68587 112.47101 271.529l0 0c0 212.07733 -171.92267 384.0 -384.0 384.0l0 0c-212.07733 0 -384.0 -171.92267 -384.0 -384.0zm253.04831 0c0 72.32263 58.62909 130.95166 130.95169 130.95166c72.32263 0 130.95166 -58.62903 130.95166 -130.95166c0 -72.3226 -58.62903 -130.95169 -130.95166 -130.95169l0 0c-72.3226 0 -130.95169 58.62909 -130.95169 130.95169z" fill-rule="evenodd"/><path fill="#000000" d="m336.0 480.0l0 0c0 -79.52899 64.47101 -144.0 144.0 -144.0l0 0c38.191162 0 74.818115 15.171387 101.823364 42.176636c27.005249 27.005219 42.176636 63.632202 42.176636 101.823364l0 0c0 79.52899 -64.47101 144.0 -144.0 144.0l0 0c-79.52899 0 -144.0 -64.47101 -144.0 -144.0zm56.053436 0l0 0c0 48.571533 39.37503 87.94653 87.94656 87.94653c48.571533 0 87.94653 -39.375 87.94653 -87.94653l0 0c0 -48.571533 -39.375 -87.94656 -87.94653 -87.94656l0 0c-48.571533 0 -87.94656 39.37503 -87.94656 87.94656z" fill-rule="evenodd"/></g></svg>